    <svg viewBox="0 0 200 200" xmlns="http://www.w3.org/2000/svg" width="100%" height="100%">
  <defs>
    <linearGradient id="tw1" x1="0%" y1="0%" x2="0%" y2="100%">
      <stop offset="0%" stop-color="#FAF5E8"/>
      <stop offset="100%" stop-color="#F5EAC0"/>
    </linearGradient>
  </defs>
  <rect width="200" height="200" fill="#FAF5E8"/>
  <!-- Towel body -->
  <rect x="35" y="35" width="130" height="140" rx="3" fill="url(#tw1)" stroke="rgba(201,168,76,0.3)" stroke-width="1"/>
  <!-- Stripes pattern -->
  <rect x="35" y="35" width="130" height="8" rx="1" fill="#C9A84C" opacity="0.7"/>
  <rect x="35" y="43" width="130" height="4" fill="#E8D5A3" opacity="0.8"/>
  <rect x="35" y="47" width="130" height="8" rx="0" fill="#C9A84C" opacity="0.5"/>
  <rect x="35" y="55" width="130" height="4" fill="#E8D5A3" opacity="0.6"/>
  <!-- Bottom stripes -->
  <rect x="35" y="151" width="130" height="8" fill="#C9A84C" opacity="0.5"/>
  <rect x="35" y="159" width="130" height="4" fill="#E8D5A3" opacity="0.6"/>
  <rect x="35" y="163" width="130" height="8" rx="0" fill="#C9A84C" opacity="0.7"/>
  <rect x="35" y="171" width="130" height="4" rx="0" fill="#E8D5A3" opacity="0.8"/>
  <!-- Center logo area -->
  <text x="100" y="108" text-anchor="middle" font-family="Georgia,serif" font-size="16" fill="#C9A84C" letter-spacing="6" font-weight="300">SOLÉA</text>
  <line x1="55" y1="115" x2="145" y2="115" stroke="#C9A84C" stroke-width="0.6" opacity="0.5"/>
  <text x="100" y="127" text-anchor="middle" font-family="Georgia,serif" font-size="6" fill="#A8832A" letter-spacing="3" opacity="0.7">WARM · NATURAL</text>
  <!-- Fringe top -->
  <line x1="40" y1="35" x2="40" y2="28" stroke="#C9A84C" stroke-width="1" opacity="0.5"/>
  <line x1="48" y1="35" x2="48" y2="27" stroke="#C9A84C" stroke-width="1" opacity="0.5"/>
  <line x1="56" y1="35" x2="56" y2="28" stroke="#C9A84C" stroke-width="1" opacity="0.5"/>
  <line x1="64" y1="35" x2="64" y2="27" stroke="#C9A84C" stroke-width="1" opacity="0.5"/>
  <line x1="72" y1="35" x2="72" y2="28" stroke="#C9A84C" stroke-width="1" opacity="0.5"/>
  <line x1="80" y1="35" x2="80" y2="27" stroke="#C9A84C" stroke-width="1" opacity="0.5"/>
  <line x1="88" y1="35" x2="88" y2="28" stroke="#C9A84C" stroke-width="1" opacity="0.5"/>
  <line x1="96" y1="35" x2="96" y2="27" stroke="#C9A84C" stroke-width="1" opacity="0.5"/>
  <line x1="104" y1="35" x2="104" y2="28" stroke="#C9A84C" stroke-width="1" opacity="0.5"/>
  <line x1="112" y1="35" x2="112" y2="27" stroke="#C9A84C" stroke-width="1" opacity="0.5"/>
  <line x1="120" y1="35" x2="120" y2="28" stroke="#C9A84C" stroke-width="1" opacity="0.5"/>
  <line x1="128" y1="35" x2="128" y2="27" stroke="#C9A84C" stroke-width="1" opacity="0.5"/>
  <line x1="136" y1="35" x2="136" y2="28" stroke="#C9A84C" stroke-width="1" opacity="0.5"/>
  <line x1="144" y1="35" x2="144" y2="27" stroke="#C9A84C" stroke-width="1" opacity="0.5"/>
  <line x1="152" y1="35" x2="152" y2="28" stroke="#C9A84C" stroke-width="1" opacity="0.5"/>
  <line x1="160" y1="35" x2="160" y2="27" stroke="#C9A84C" stroke-width="1" opacity="0.5"/>
  <!-- Fringe bottom -->
  <line x1="40" y1="175" x2="40" y2="182" stroke="#C9A84C" stroke-width="1" opacity="0.5"/>
  <line x1="48" y1="175" x2="48" y2="183" stroke="#C9A84C" stroke-width="1" opacity="0.5"/>
  <line x1="56" y1="175" x2="56" y2="182" stroke="#C9A84C" stroke-width="1" opacity="0.5"/>
  <line x1="64" y1="175" x2="64" y2="183" stroke="#C9A84C" stroke-width="1" opacity="0.5"/>
  <line x1="72" y1="175" x2="72" y2="182" stroke="#C9A84C" stroke-width="1" opacity="0.5"/>
  <line x1="80" y1="175" x2="80" y2="183" stroke="#C9A84C" stroke-width="1" opacity="0.5"/>
  <line x1="88" y1="175" x2="88" y2="182" stroke="#C9A84C" stroke-width="1" opacity="0.5"/>
  <line x1="96" y1="175" x2="96" y2="183" stroke="#C9A84C" stroke-width="1" opacity="0.5"/>
  <line x1="104" y1="175" x2="104" y2="182" stroke="#C9A84C" stroke-width="1" opacity="0.5"/>
  <line x1="112" y1="175" x2="112" y2="183" stroke="#C9A84C" stroke-width="1" opacity="0.5"/>
  <line x1="120" y1="175" x2="120" y2="182" stroke="#C9A84C" stroke-width="1" opacity="0.5"/>
  <line x1="128" y1="175" x2="128" y2="183" stroke="#C9A84C" stroke-width="1" opacity="0.5"/>
  <line x1="136" y1="175" x2="136" y2="182" stroke="#C9A84C" stroke-width="1" opacity="0.5"/>
  <line x1="144" y1="175" x2="144" y2="183" stroke="#C9A84C" stroke-width="1" opacity="0.5"/>
  <line x1="152" y1="175" x2="152" y2="182" stroke="#C9A84C" stroke-width="1" opacity="0.5"/>
  <line x1="160" y1="175" x2="160" y2="183" stroke="#C9A84C" stroke-width="1" opacity="0.5"/>
</svg>
