    <svg viewBox="0 0 200 200" xmlns="http://www.w3.org/2000/svg" width="100%" height="100%">
  <defs>
    <linearGradient id="jar1" x1="0%" y1="0%" x2="100%" y2="0%">
      <stop offset="0%" stop-color="#A8832A"/>
      <stop offset="35%" stop-color="#E8D5A3"/>
      <stop offset="65%" stop-color="#C9A84C"/>
      <stop offset="100%" stop-color="#A8832A"/>
    </linearGradient>
    <linearGradient id="jar2" x1="0%" y1="0%" x2="100%" y2="0%">
      <stop offset="0%" stop-color="#C9A84C"/>
      <stop offset="50%" stop-color="#F0DFA0"/>
      <stop offset="100%" stop-color="#C9A84C"/>
    </linearGradient>
    <linearGradient id="wax" x1="0%" y1="0%" x2="0%" y2="100%">
      <stop offset="0%" stop-color="#FAF5E8"/>
      <stop offset="100%" stop-color="#F0E8D0"/>
    </linearGradient>
    <radialGradient id="flame1" cx="50%" cy="80%" r="50%">
      <stop offset="0%" stop-color="#FFF3C0"/>
      <stop offset="60%" stop-color="#F0A020"/>
      <stop offset="100%" stop-color="rgba(240,80,0,0)"/>
    </radialGradient>
  </defs>
  <rect width="200" height="200" fill="#FAF5E8"/>

  <!-- LARGE CANDLE (centre) -->
  <rect x="72" y="78" width="56" height="90" rx="4" fill="url(#jar1)"/>
  <rect x="75" y="81" width="10" height="80" rx="2" fill="rgba(255,255,255,0.2)"/>
  <rect x="72" y="73" width="56" height="10" rx="2" fill="#C9A84C"/>
  <rect x="72" y="68" width="56" height="8" rx="2" fill="#E8D5A3"/>
  <!-- Wax top -->
  <ellipse cx="100" cy="73" rx="28" ry="5" fill="url(#wax)"/>
  <!-- Wick -->
  <line x1="100" y1="73" x2="100" y2="62" stroke="#3a2a0a" stroke-width="1.5" stroke-linecap="round"/>
  <!-- Flame -->
  <ellipse cx="100" cy="57" rx="5" ry="8" fill="url(#flame1)" opacity="0.9"/>
  <ellipse cx="100" cy="60" rx="2.5" ry="4" fill="#FFF8DC"/>
  <!-- Label -->
  <rect x="78" y="108" width="44" height="28" rx="1" fill="rgba(255,255,255,0.25)"/>
  <text x="100" y="121" text-anchor="middle" font-family="Georgia,serif" font-size="8" fill="rgba(122,94,26,0.9)" letter-spacing="1" font-style="italic">Soléa</text>
  <line x1="82" y1="124" x2="118" y2="124" stroke="rgba(122,94,26,0.4)" stroke-width="0.5"/>
  <text x="100" y="131" text-anchor="middle" font-family="Georgia,serif" font-size="5" fill="rgba(122,94,26,0.6)" letter-spacing="2">NO.1</text>
  <!-- Shadow -->
  <ellipse cx="100" cy="169" rx="30" ry="5" fill="rgba(201,168,76,0.15)"/>

  <!-- SMALL CANDLE (left) -->
  <rect x="30" y="108" width="36" height="58" rx="3" fill="url(#jar2)"/>
  <rect x="33" y="111" width="7" height="50" rx="2" fill="rgba(255,255,255,0.18)"/>
  <rect x="30" y="104" width="36" height="7" rx="2" fill="#C9A84C"/>
  <ellipse cx="48" cy="107" rx="18" ry="4" fill="#F5EAC0"/>
  <line x1="48" y1="107" x2="49" y2="98" stroke="#3a2a0a" stroke-width="1.2"/>
  <ellipse cx="49" cy="94" rx="3.5" ry="6" fill="url(#flame1)" opacity="0.8"/>
  <ellipse cx="49" cy="97" rx="1.8" ry="3" fill="#FFF8DC"/>
  <ellipse cx="48" cy="167" rx="18" ry="3" fill="rgba(201,168,76,0.12)"/>

  <!-- SMALL CANDLE (right) -->
  <rect x="134" y="118" width="36" height="48" rx="3" fill="url(#jar1)"/>
  <rect x="137" y="121" width="7" height="40" rx="2" fill="rgba(255,255,255,0.18)"/>
  <rect x="134" y="114" width="36" height="7" rx="2" fill="#C9A84C"/>
  <ellipse cx="152" cy="117" rx="18" ry="4" fill="#F5EAC0"/>
  <line x1="152" y1="117" x2="151" y2="108" stroke="#3a2a0a" stroke-width="1.2"/>
  <ellipse cx="151" cy="104" rx="3.5" ry="6" fill="url(#flame1)" opacity="0.85"/>
  <ellipse cx="151" cy="107" rx="1.8" ry="3" fill="#FFF8DC"/>
  <ellipse cx="152" cy="167" rx="18" ry="3" fill="rgba(201,168,76,0.12)"/>
</svg>
