    <svg viewBox="0 0 200 200" xmlns="http://www.w3.org/2000/svg" width="100%" height="100%">
  <defs>
    <linearGradient id="tote1" x1="0%" y1="0%" x2="100%" y2="100%">
      <stop offset="0%" stop-color="#F5EAC0"/>
      <stop offset="100%" stop-color="#E8D5A3"/>
    </linearGradient>
    <linearGradient id="tote2" x1="0%" y1="0%" x2="0%" y2="100%">
      <stop offset="0%" stop-color="#C9A84C"/>
      <stop offset="100%" stop-color="#A8832A"/>
    </linearGradient>
  </defs>
  <rect width="200" height="200" fill="#FAF5E8"/>
  <!-- Bag body -->
  <path d="M55 85 L145 85 L138 165 L62 165 Z" fill="url(#tote1)" stroke="#C9A84C" stroke-width="1.5"/>
  <!-- Bag top fold -->
  <rect x="55" y="76" width="90" height="12" rx="2" fill="#E8D5A3" stroke="#C9A84C" stroke-width="1"/>
  <!-- Handles -->
  <path d="M78 76 Q78 46 100 46 Q122 46 122 76" fill="none" stroke="url(#tote2)" stroke-width="4" stroke-linecap="round"/>
  <!-- Gold hardware circles -->
  <circle cx="78" cy="76" r="4" fill="#C9A84C"/>
  <circle cx="122" cy="76" r="4" fill="#C9A84C"/>
  <!-- Logo on bag -->
  <text x="100" y="130" text-anchor="middle" font-family="Georgia,serif" font-size="11" fill="#A8832A" letter-spacing="3" font-weight="300">SOLÉA</text>
  <line x1="72" y1="134" x2="128" y2="134" stroke="#C9A84C" stroke-width="0.5" opacity="0.6"/>
  <!-- Subtle texture lines -->
  <line x1="70" y1="100" x2="130" y2="100" stroke="#C9A84C" stroke-width="0.3" opacity="0.3"/>
  <line x1="68" y1="115" x2="132" y2="115" stroke="#C9A84C" stroke-width="0.3" opacity="0.3"/>
  <line x1="66" y1="130" x2="134" y2="130" stroke="#C9A84C" stroke-width="0.3" opacity="0.25"/>
  <line x1="64" y1="148" x2="136" y2="148" stroke="#C9A84C" stroke-width="0.3" opacity="0.2"/>
</svg>
