    <svg viewBox="0 0 200 200" xmlns="http://www.w3.org/2000/svg" width="100%" height="100%">
  <defs>
    <linearGradient id="tee1" x1="0%" y1="0%" x2="100%" y2="100%">
      <stop offset="0%" stop-color="#F5EAC0"/>
      <stop offset="100%" stop-color="#EDE0B8"/>
    </linearGradient>
    <linearGradient id="tee2" x1="0%" y1="0%" x2="100%" y2="0%">
      <stop offset="0%" stop-color="#E0D0A0"/>
      <stop offset="100%" stop-color="#EAD8B0"/>
    </linearGradient>
  </defs>
  <rect width="200" height="200" fill="#FAF5E8"/>
  <!-- T-shirt body -->
  <path d="M55 75 L40 50 L70 45 Q80 38 100 38 Q120 38 130 45 L160 50 L145 75 L135 65 L135 165 L65 165 L65 65 Z" fill="url(#tee1)" stroke="rgba(201,168,76,0.3)" stroke-width="1"/>
  <!-- Left sleeve -->
  <path d="M55 75 L40 50 L70 45 L65 65 Z" fill="url(#tee2)" stroke="rgba(201,168,76,0.25)" stroke-width="1"/>
  <!-- Right sleeve -->
  <path d="M145 75 L160 50 L130 45 L135 65 Z" fill="url(#tee2)" stroke="rgba(201,168,76,0.25)" stroke-width="1"/>
  <!-- Collar -->
  <path d="M85 43 Q100 55 115 43" fill="none" stroke="rgba(201,168,76,0.5)" stroke-width="2" stroke-linecap="round"/>
  <!-- Linen texture subtle lines -->
  <line x1="65" y1="90" x2="135" y2="90" stroke="rgba(180,160,80,0.1)" stroke-width="0.8"/>
  <line x1="65" y1="105" x2="135" y2="105" stroke="rgba(180,160,80,0.1)" stroke-width="0.8"/>
  <line x1="65" y1="120" x2="135" y2="120" stroke="rgba(180,160,80,0.1)" stroke-width="0.8"/>
  <line x1="65" y1="135" x2="135" y2="135" stroke="rgba(180,160,80,0.1)" stroke-width="0.8"/>
  <line x1="65" y1="150" x2="135" y2="150" stroke="rgba(180,160,80,0.1)" stroke-width="0.8"/>
  <!-- Small logo chest -->
  <text x="100" y="86" text-anchor="middle" font-family="Georgia,serif" font-size="9" fill="rgba(168,131,42,0.55)" letter-spacing="2" font-style="italic">Soléa</text>
  <!-- Hem stitching -->
  <line x1="65" y1="163" x2="135" y2="163" stroke="rgba(201,168,76,0.35)" stroke-width="1" stroke-dasharray="3 2"/>
  <!-- Sleeve stitching -->
  <line x1="41" y1="51" x2="68" y2="46" stroke="rgba(201,168,76,0.3)" stroke-width="0.8" stroke-dasharray="2 2"/>
  <line x1="132" y1="46" x2="159" y2="51" stroke="rgba(201,168,76,0.3)" stroke-width="0.8" stroke-dasharray="2 2"/>
  <!-- Shadow -->
  <ellipse cx="100" cy="168" rx="42" ry="5" fill="rgba(201,168,76,0.1)"/>
</svg>
