    <svg viewBox="0 0 200 200" xmlns="http://www.w3.org/2000/svg" width="100%" height="100%">
  <defs>
    <linearGradient id="lens1" x1="0%" y1="0%" x2="100%" y2="100%">
      <stop offset="0%" stop-color="rgba(201,168,76,0.4)"/>
      <stop offset="100%" stop-color="rgba(168,131,42,0.6)"/>
    </linearGradient>
    <linearGradient id="lens2" x1="0%" y1="0%" x2="100%" y2="100%">
      <stop offset="0%" stop-color="rgba(168,131,42,0.5)"/>
      <stop offset="100%" stop-color="rgba(122,94,26,0.7)"/>
    </linearGradient>
  </defs>
  <rect width="200" height="200" fill="#FAF5E8"/>
  <!-- Frame shadow -->
  <ellipse cx="100" cy="108" rx="75" ry="6" fill="rgba(201,168,76,0.12)"/>
  <!-- Left temple arm -->
  <line x1="38" y1="92" x2="18" y2="105" stroke="#C9A84C" stroke-width="2.5" stroke-linecap="round"/>
  <!-- Right temple arm -->
  <line x1="162" y1="92" x2="182" y2="105" stroke="#C9A84C" stroke-width="2.5" stroke-linecap="round"/>
  <!-- Left lens -->
  <rect x="30" y="78" width="60" height="38" rx="10" fill="url(#lens1)" stroke="#C9A84C" stroke-width="2"/>
  <!-- Left lens shine -->
  <path d="M36 84 Q45 80 55 83" fill="none" stroke="rgba(255,255,255,0.45)" stroke-width="2" stroke-linecap="round"/>
  <!-- Right lens -->
  <rect x="110" y="78" width="60" height="38" rx="10" fill="url(#lens2)" stroke="#C9A84C" stroke-width="2"/>
  <!-- Right lens shine -->
  <path d="M116 84 Q125 80 135 83" fill="none" stroke="rgba(255,255,255,0.35)" stroke-width="2" stroke-linecap="round"/>
  <!-- Bridge -->
  <path d="M90 93 Q100 87 110 93" fill="none" stroke="#C9A84C" stroke-width="2.5" stroke-linecap="round"/>
  <!-- Nose pads -->
  <circle cx="92" cy="94" r="2" fill="#E8D5A3"/>
  <circle cx="108" cy="94" r="2" fill="#E8D5A3"/>
  <!-- Left hinge -->
  <circle cx="38" cy="92" r="3" fill="#A8832A"/>
  <!-- Right hinge -->
  <circle cx="162" cy="92" r="3" fill="#A8832A"/>
  <!-- Engraving on left arm -->
  <text x="22" y="117" text-anchor="middle" font-family="Georgia,serif" font-size="5" fill="#A8832A" letter-spacing="1" transform="rotate(35,22,110)">SOLÉA</text>
</svg>
