    <svg viewBox="0 0 200 200" xmlns="http://www.w3.org/2000/svg" width="100%" height="100%">
  <defs>
    <linearGradient id="sl1" x1="0%" y1="0%" x2="100%" y2="100%">
      <stop offset="0%" stop-color="#E8D5A3"/>
      <stop offset="100%" stop-color="#C9A84C"/>
    </linearGradient>
    <linearGradient id="sl2" x1="0%" y1="0%" x2="100%" y2="100%">
      <stop offset="0%" stop-color="#F5EAC0"/>
      <stop offset="100%" stop-color="#E8D5A3"/>
    </linearGradient>
  </defs>
  <rect width="200" height="200" fill="#FAF5E8"/>
  <!-- Sole shadow -->
  <ellipse cx="102" cy="148" rx="62" ry="8" fill="rgba(201,168,76,0.15)"/>
  <!-- Sole bottom -->
  <path d="M42 138 Q44 148 100 148 Q156 148 158 138 L155 125 Q153 120 100 120 Q47 120 45 125 Z" fill="#C9A84C"/>
  <!-- Sole top -->
  <path d="M45 125 Q47 118 100 118 Q153 118 155 125 L155 128 Q153 122 100 122 Q47 122 45 128 Z" fill="#E8D5A3"/>
  <!-- Footbed -->
  <path d="M48 122 Q50 115 100 115 Q150 115 152 122 L155 125 Q153 118 100 118 Q47 118 45 125 Z" fill="url(#sl2)"/>
  <!-- Strap -->
  <path d="M65 118 Q80 88 100 85 Q120 88 135 118" fill="none" stroke="url(#sl1)" stroke-width="14" stroke-linecap="round"/>
  <!-- Strap highlight -->
  <path d="M68 116 Q82 90 100 87 Q118 90 132 116" fill="none" stroke="rgba(255,255,255,0.3)" stroke-width="5" stroke-linecap="round"/>
  <!-- Logo on strap -->
  <text x="100" y="106" text-anchor="middle" font-family="Georgia,serif" font-size="8" fill="rgba(255,255,255,0.8)" letter-spacing="2">SOLÉA</text>
  <!-- Toe area indent -->
  <ellipse cx="130" cy="122" rx="12" ry="4" fill="rgba(168,131,42,0.2)"/>
</svg>
