    <svg viewBox="0 0 200 200" xmlns="http://www.w3.org/2000/svg" width="100%" height="100%">
  <defs>
    <linearGradient id="cap1" x1="0%" y1="0%" x2="100%" y2="100%">
      <stop offset="0%" stop-color="#F0DFA0"/>
      <stop offset="100%" stop-color="#D4B848"/>
    </linearGradient>
    <linearGradient id="cap2" x1="0%" y1="0%" x2="0%" y2="100%">
      <stop offset="0%" stop-color="#E8D5A3"/>
      <stop offset="100%" stop-color="#C9A84C"/>
    </linearGradient>
  </defs>
  <rect width="200" height="200" fill="#FAF5E8"/>
  <!-- Cap dome -->
  <path d="M55 115 Q55 60 100 58 Q145 60 145 115 Z" fill="url(#cap1)"/>
  <!-- Cap dome shadow side -->
  <path d="M100 58 Q145 60 145 115 L125 115 Q125 75 100 73 Z" fill="rgba(168,131,42,0.18)"/>
  <!-- Brim -->
  <path d="M40 118 Q42 112 100 112 Q158 112 160 118 Q158 126 130 126 Q100 128 70 126 Q42 126 40 118 Z" fill="url(#cap2)"/>
  <!-- Brim underside -->
  <path d="M40 118 Q42 124 70 126 Q100 128 130 126 Q158 126 160 118" fill="none" stroke="#A8832A" stroke-width="1.5"/>
  <!-- Sweat band seam -->
  <path d="M57 113 Q57 108 100 106 Q143 108 143 113" fill="none" stroke="rgba(168,131,42,0.4)" stroke-width="1.5"/>
  <!-- Button on top -->
  <circle cx="100" cy="60" r="4" fill="#C9A84C"/>
  <!-- Logo embroidery -->
  <text x="100" y="96" text-anchor="middle" font-family="Georgia,serif" font-size="10" fill="rgba(122,94,26,0.8)" letter-spacing="2" font-style="italic">S</text>
  <!-- Eyelets -->
  <circle cx="72" cy="90" r="2.5" fill="rgba(168,131,42,0.3)" stroke="#C9A84C" stroke-width="0.5"/>
  <circle cx="128" cy="90" r="2.5" fill="rgba(168,131,42,0.3)" stroke="#C9A84C" stroke-width="0.5"/>
  <!-- Shadow -->
  <ellipse cx="100" cy="128" rx="55" ry="5" fill="rgba(201,168,76,0.12)"/>
</svg>
